<mxfile host="app.diagrams.net" modified="2021-07-05T11:44:32.415Z" agent="5.0 (X11; Linux x86_64) AppleWebKit/537.36 (KHTML, like Gecko) Chrome/90.0.4430.93 Safari/537.36" etag="hXa4TP_NMB1SWRPQ2b_w" version="14.8.4" type="github">
  <diagram id="_WWPU4OvvkkuJgzsqptc" name="Page-1">
    <mxGraphModel dx="1185" dy="648" grid="1" gridSize="10" guides="1" tooltips="1" connect="1" arrows="1" fold="1" page="1" pageScale="1" pageWidth="850" pageHeight="1100" math="0" shadow="0">
      <root>
        <mxCell id="0" />
        <mxCell id="1" parent="0" />
        <mxCell id="FqzfooGI2hUJGrlb4ZZL-1" value="measurement" style="shape=table;startSize=30;container=1;collapsible=1;childLayout=tableLayout;fixedRows=1;rowLines=0;fontStyle=1;align=center;resizeLast=1;" vertex="1" parent="1">
          <mxGeometry x="370" y="280" width="180" height="190" as="geometry" />
        </mxCell>
        <mxCell id="FqzfooGI2hUJGrlb4ZZL-2" value="" style="shape=partialRectangle;collapsible=0;dropTarget=0;pointerEvents=0;fillColor=none;top=0;left=0;bottom=1;right=0;points=[[0,0.5],[1,0.5]];portConstraint=eastwest;" vertex="1" parent="FqzfooGI2hUJGrlb4ZZL-1">
          <mxGeometry y="30" width="180" height="30" as="geometry" />
        </mxCell>
        <mxCell id="FqzfooGI2hUJGrlb4ZZL-3" value="PK" style="shape=partialRectangle;connectable=0;fillColor=none;top=0;left=0;bottom=0;right=0;fontStyle=1;overflow=hidden;" vertex="1" parent="FqzfooGI2hUJGrlb4ZZL-2">
          <mxGeometry width="30" height="30" as="geometry" />
        </mxCell>
        <mxCell id="FqzfooGI2hUJGrlb4ZZL-4" value="UniqueID" style="shape=partialRectangle;connectable=0;fillColor=none;top=0;left=0;bottom=0;right=0;align=left;spacingLeft=6;fontStyle=5;overflow=hidden;" vertex="1" parent="FqzfooGI2hUJGrlb4ZZL-2">
          <mxGeometry x="30" width="150" height="30" as="geometry" />
        </mxCell>
        <mxCell id="FqzfooGI2hUJGrlb4ZZL-77" value="" style="shape=partialRectangle;collapsible=0;dropTarget=0;pointerEvents=0;fillColor=none;top=0;left=0;bottom=0;right=0;points=[[0,0.5],[1,0.5]];portConstraint=eastwest;" vertex="1" parent="FqzfooGI2hUJGrlb4ZZL-1">
          <mxGeometry y="60" width="180" height="30" as="geometry" />
        </mxCell>
        <mxCell id="FqzfooGI2hUJGrlb4ZZL-78" value="FK" style="shape=partialRectangle;connectable=0;fillColor=none;top=0;left=0;bottom=0;right=0;fontStyle=0;overflow=hidden;" vertex="1" parent="FqzfooGI2hUJGrlb4ZZL-77">
          <mxGeometry width="30" height="30" as="geometry" />
        </mxCell>
        <mxCell id="FqzfooGI2hUJGrlb4ZZL-79" value="UniqueID" style="shape=partialRectangle;connectable=0;fillColor=none;top=0;left=0;bottom=0;right=0;align=left;spacingLeft=6;fontStyle=0;overflow=hidden;" vertex="1" parent="FqzfooGI2hUJGrlb4ZZL-77">
          <mxGeometry x="30" width="150" height="30" as="geometry" />
        </mxCell>
        <mxCell id="FqzfooGI2hUJGrlb4ZZL-5" value="" style="shape=partialRectangle;collapsible=0;dropTarget=0;pointerEvents=0;fillColor=none;top=0;left=0;bottom=0;right=0;points=[[0,0.5],[1,0.5]];portConstraint=eastwest;" vertex="1" parent="FqzfooGI2hUJGrlb4ZZL-1">
          <mxGeometry y="90" width="180" height="30" as="geometry" />
        </mxCell>
        <mxCell id="FqzfooGI2hUJGrlb4ZZL-6" value="" style="shape=partialRectangle;connectable=0;fillColor=none;top=0;left=0;bottom=0;right=0;editable=1;overflow=hidden;" vertex="1" parent="FqzfooGI2hUJGrlb4ZZL-5">
          <mxGeometry width="30" height="30" as="geometry" />
        </mxCell>
        <mxCell id="FqzfooGI2hUJGrlb4ZZL-7" value="Target_val ???" style="shape=partialRectangle;connectable=0;fillColor=none;top=0;left=0;bottom=0;right=0;align=left;spacingLeft=6;overflow=hidden;" vertex="1" parent="FqzfooGI2hUJGrlb4ZZL-5">
          <mxGeometry x="30" width="150" height="30" as="geometry" />
        </mxCell>
        <mxCell id="FqzfooGI2hUJGrlb4ZZL-8" value="" style="shape=partialRectangle;collapsible=0;dropTarget=0;pointerEvents=0;fillColor=none;top=0;left=0;bottom=0;right=0;points=[[0,0.5],[1,0.5]];portConstraint=eastwest;" vertex="1" parent="FqzfooGI2hUJGrlb4ZZL-1">
          <mxGeometry y="120" width="180" height="30" as="geometry" />
        </mxCell>
        <mxCell id="FqzfooGI2hUJGrlb4ZZL-9" value="" style="shape=partialRectangle;connectable=0;fillColor=none;top=0;left=0;bottom=0;right=0;editable=1;overflow=hidden;" vertex="1" parent="FqzfooGI2hUJGrlb4ZZL-8">
          <mxGeometry width="30" height="30" as="geometry" />
        </mxCell>
        <mxCell id="FqzfooGI2hUJGrlb4ZZL-10" value="Commit_time" style="shape=partialRectangle;connectable=0;fillColor=none;top=0;left=0;bottom=0;right=0;align=left;spacingLeft=6;overflow=hidden;" vertex="1" parent="FqzfooGI2hUJGrlb4ZZL-8">
          <mxGeometry x="30" width="150" height="30" as="geometry" />
        </mxCell>
        <mxCell id="FqzfooGI2hUJGrlb4ZZL-11" value="" style="shape=partialRectangle;collapsible=0;dropTarget=0;pointerEvents=0;fillColor=none;top=0;left=0;bottom=0;right=0;points=[[0,0.5],[1,0.5]];portConstraint=eastwest;" vertex="1" parent="FqzfooGI2hUJGrlb4ZZL-1">
          <mxGeometry y="150" width="180" height="30" as="geometry" />
        </mxCell>
        <mxCell id="FqzfooGI2hUJGrlb4ZZL-12" value="" style="shape=partialRectangle;connectable=0;fillColor=none;top=0;left=0;bottom=0;right=0;editable=1;overflow=hidden;" vertex="1" parent="FqzfooGI2hUJGrlb4ZZL-11">
          <mxGeometry width="30" height="30" as="geometry" />
        </mxCell>
        <mxCell id="FqzfooGI2hUJGrlb4ZZL-13" value="Row 3" style="shape=partialRectangle;connectable=0;fillColor=none;top=0;left=0;bottom=0;right=0;align=left;spacingLeft=6;overflow=hidden;" vertex="1" parent="FqzfooGI2hUJGrlb4ZZL-11">
          <mxGeometry x="30" width="150" height="30" as="geometry" />
        </mxCell>
        <mxCell id="FqzfooGI2hUJGrlb4ZZL-14" value="measurement_val" style="shape=table;startSize=30;container=1;collapsible=1;childLayout=tableLayout;fixedRows=1;rowLines=0;fontStyle=1;align=center;resizeLast=1;" vertex="1" parent="1">
          <mxGeometry x="680" y="280" width="180" height="220" as="geometry" />
        </mxCell>
        <mxCell id="FqzfooGI2hUJGrlb4ZZL-15" value="" style="shape=partialRectangle;collapsible=0;dropTarget=0;pointerEvents=0;fillColor=none;top=0;left=0;bottom=1;right=0;points=[[0,0.5],[1,0.5]];portConstraint=eastwest;" vertex="1" parent="FqzfooGI2hUJGrlb4ZZL-14">
          <mxGeometry y="30" width="180" height="30" as="geometry" />
        </mxCell>
        <mxCell id="FqzfooGI2hUJGrlb4ZZL-16" value="PK" style="shape=partialRectangle;connectable=0;fillColor=none;top=0;left=0;bottom=0;right=0;fontStyle=1;overflow=hidden;" vertex="1" parent="FqzfooGI2hUJGrlb4ZZL-15">
          <mxGeometry width="30" height="30" as="geometry" />
        </mxCell>
        <mxCell id="FqzfooGI2hUJGrlb4ZZL-17" value="UniqueID" style="shape=partialRectangle;connectable=0;fillColor=none;top=0;left=0;bottom=0;right=0;align=left;spacingLeft=6;fontStyle=5;overflow=hidden;" vertex="1" parent="FqzfooGI2hUJGrlb4ZZL-15">
          <mxGeometry x="30" width="150" height="30" as="geometry" />
        </mxCell>
        <mxCell id="FqzfooGI2hUJGrlb4ZZL-40" value="" style="shape=partialRectangle;collapsible=0;dropTarget=0;pointerEvents=0;fillColor=none;top=0;left=0;bottom=0;right=0;points=[[0,0.5],[1,0.5]];portConstraint=eastwest;" vertex="1" parent="FqzfooGI2hUJGrlb4ZZL-14">
          <mxGeometry y="60" width="180" height="30" as="geometry" />
        </mxCell>
        <mxCell id="FqzfooGI2hUJGrlb4ZZL-41" value="FK" style="shape=partialRectangle;connectable=0;fillColor=none;top=0;left=0;bottom=0;right=0;fontStyle=0;overflow=hidden;" vertex="1" parent="FqzfooGI2hUJGrlb4ZZL-40">
          <mxGeometry width="30" height="30" as="geometry" />
        </mxCell>
        <mxCell id="FqzfooGI2hUJGrlb4ZZL-42" value="UniqueID" style="shape=partialRectangle;connectable=0;fillColor=none;top=0;left=0;bottom=0;right=0;align=left;spacingLeft=6;fontStyle=0;overflow=hidden;" vertex="1" parent="FqzfooGI2hUJGrlb4ZZL-40">
          <mxGeometry x="30" width="150" height="30" as="geometry" />
        </mxCell>
        <mxCell id="FqzfooGI2hUJGrlb4ZZL-47" value="" style="shape=partialRectangle;collapsible=0;dropTarget=0;pointerEvents=0;fillColor=none;top=0;left=0;bottom=0;right=0;points=[[0,0.5],[1,0.5]];portConstraint=eastwest;" vertex="1" parent="FqzfooGI2hUJGrlb4ZZL-14">
          <mxGeometry y="90" width="180" height="30" as="geometry" />
        </mxCell>
        <mxCell id="FqzfooGI2hUJGrlb4ZZL-48" value="FK" style="shape=partialRectangle;connectable=0;fillColor=none;top=0;left=0;bottom=0;right=0;fontStyle=0;overflow=hidden;" vertex="1" parent="FqzfooGI2hUJGrlb4ZZL-47">
          <mxGeometry width="30" height="30" as="geometry" />
        </mxCell>
        <mxCell id="FqzfooGI2hUJGrlb4ZZL-49" value="UniqueID" style="shape=partialRectangle;connectable=0;fillColor=none;top=0;left=0;bottom=0;right=0;align=left;spacingLeft=6;fontStyle=0;overflow=hidden;" vertex="1" parent="FqzfooGI2hUJGrlb4ZZL-47">
          <mxGeometry x="30" width="150" height="30" as="geometry" />
        </mxCell>
        <mxCell id="FqzfooGI2hUJGrlb4ZZL-18" value="" style="shape=partialRectangle;collapsible=0;dropTarget=0;pointerEvents=0;fillColor=none;top=0;left=0;bottom=0;right=0;points=[[0,0.5],[1,0.5]];portConstraint=eastwest;" vertex="1" parent="FqzfooGI2hUJGrlb4ZZL-14">
          <mxGeometry y="120" width="180" height="30" as="geometry" />
        </mxCell>
        <mxCell id="FqzfooGI2hUJGrlb4ZZL-19" value="" style="shape=partialRectangle;connectable=0;fillColor=none;top=0;left=0;bottom=0;right=0;editable=1;overflow=hidden;" vertex="1" parent="FqzfooGI2hUJGrlb4ZZL-18">
          <mxGeometry width="30" height="30" as="geometry" />
        </mxCell>
        <mxCell id="FqzfooGI2hUJGrlb4ZZL-20" value="Val" style="shape=partialRectangle;connectable=0;fillColor=none;top=0;left=0;bottom=0;right=0;align=left;spacingLeft=6;overflow=hidden;" vertex="1" parent="FqzfooGI2hUJGrlb4ZZL-18">
          <mxGeometry x="30" width="150" height="30" as="geometry" />
        </mxCell>
        <mxCell id="FqzfooGI2hUJGrlb4ZZL-21" value="" style="shape=partialRectangle;collapsible=0;dropTarget=0;pointerEvents=0;fillColor=none;top=0;left=0;bottom=0;right=0;points=[[0,0.5],[1,0.5]];portConstraint=eastwest;" vertex="1" parent="FqzfooGI2hUJGrlb4ZZL-14">
          <mxGeometry y="150" width="180" height="30" as="geometry" />
        </mxCell>
        <mxCell id="FqzfooGI2hUJGrlb4ZZL-22" value="" style="shape=partialRectangle;connectable=0;fillColor=none;top=0;left=0;bottom=0;right=0;editable=1;overflow=hidden;" vertex="1" parent="FqzfooGI2hUJGrlb4ZZL-21">
          <mxGeometry width="30" height="30" as="geometry" />
        </mxCell>
        <mxCell id="FqzfooGI2hUJGrlb4ZZL-23" value="Time" style="shape=partialRectangle;connectable=0;fillColor=none;top=0;left=0;bottom=0;right=0;align=left;spacingLeft=6;overflow=hidden;" vertex="1" parent="FqzfooGI2hUJGrlb4ZZL-21">
          <mxGeometry x="30" width="150" height="30" as="geometry" />
        </mxCell>
        <mxCell id="FqzfooGI2hUJGrlb4ZZL-24" value="" style="shape=partialRectangle;collapsible=0;dropTarget=0;pointerEvents=0;fillColor=none;top=0;left=0;bottom=0;right=0;points=[[0,0.5],[1,0.5]];portConstraint=eastwest;" vertex="1" parent="FqzfooGI2hUJGrlb4ZZL-14">
          <mxGeometry y="180" width="180" height="30" as="geometry" />
        </mxCell>
        <mxCell id="FqzfooGI2hUJGrlb4ZZL-25" value="" style="shape=partialRectangle;connectable=0;fillColor=none;top=0;left=0;bottom=0;right=0;editable=1;overflow=hidden;" vertex="1" parent="FqzfooGI2hUJGrlb4ZZL-24">
          <mxGeometry width="30" height="30" as="geometry" />
        </mxCell>
        <mxCell id="FqzfooGI2hUJGrlb4ZZL-26" value="Row 3" style="shape=partialRectangle;connectable=0;fillColor=none;top=0;left=0;bottom=0;right=0;align=left;spacingLeft=6;overflow=hidden;" vertex="1" parent="FqzfooGI2hUJGrlb4ZZL-24">
          <mxGeometry x="30" width="150" height="30" as="geometry" />
        </mxCell>
        <mxCell id="FqzfooGI2hUJGrlb4ZZL-27" value="Thermometer" style="shape=table;startSize=30;container=1;collapsible=1;childLayout=tableLayout;fixedRows=1;rowLines=0;fontStyle=1;align=center;resizeLast=1;" vertex="1" parent="1">
          <mxGeometry x="370" y="540" width="180" height="160" as="geometry" />
        </mxCell>
        <mxCell id="FqzfooGI2hUJGrlb4ZZL-28" value="" style="shape=partialRectangle;collapsible=0;dropTarget=0;pointerEvents=0;fillColor=none;top=0;left=0;bottom=1;right=0;points=[[0,0.5],[1,0.5]];portConstraint=eastwest;" vertex="1" parent="FqzfooGI2hUJGrlb4ZZL-27">
          <mxGeometry y="30" width="180" height="30" as="geometry" />
        </mxCell>
        <mxCell id="FqzfooGI2hUJGrlb4ZZL-29" value="PK" style="shape=partialRectangle;connectable=0;fillColor=none;top=0;left=0;bottom=0;right=0;fontStyle=1;overflow=hidden;" vertex="1" parent="FqzfooGI2hUJGrlb4ZZL-28">
          <mxGeometry width="30" height="30" as="geometry" />
        </mxCell>
        <mxCell id="FqzfooGI2hUJGrlb4ZZL-30" value="UniqueID" style="shape=partialRectangle;connectable=0;fillColor=none;top=0;left=0;bottom=0;right=0;align=left;spacingLeft=6;fontStyle=5;overflow=hidden;" vertex="1" parent="FqzfooGI2hUJGrlb4ZZL-28">
          <mxGeometry x="30" width="150" height="30" as="geometry" />
        </mxCell>
        <mxCell id="FqzfooGI2hUJGrlb4ZZL-31" value="" style="shape=partialRectangle;collapsible=0;dropTarget=0;pointerEvents=0;fillColor=none;top=0;left=0;bottom=0;right=0;points=[[0,0.5],[1,0.5]];portConstraint=eastwest;" vertex="1" parent="FqzfooGI2hUJGrlb4ZZL-27">
          <mxGeometry y="60" width="180" height="30" as="geometry" />
        </mxCell>
        <mxCell id="FqzfooGI2hUJGrlb4ZZL-32" value="" style="shape=partialRectangle;connectable=0;fillColor=none;top=0;left=0;bottom=0;right=0;editable=1;overflow=hidden;" vertex="1" parent="FqzfooGI2hUJGrlb4ZZL-31">
          <mxGeometry width="30" height="30" as="geometry" />
        </mxCell>
        <mxCell id="FqzfooGI2hUJGrlb4ZZL-33" value="Type" style="shape=partialRectangle;connectable=0;fillColor=none;top=0;left=0;bottom=0;right=0;align=left;spacingLeft=6;overflow=hidden;" vertex="1" parent="FqzfooGI2hUJGrlb4ZZL-31">
          <mxGeometry x="30" width="150" height="30" as="geometry" />
        </mxCell>
        <mxCell id="FqzfooGI2hUJGrlb4ZZL-34" value="" style="shape=partialRectangle;collapsible=0;dropTarget=0;pointerEvents=0;fillColor=none;top=0;left=0;bottom=0;right=0;points=[[0,0.5],[1,0.5]];portConstraint=eastwest;" vertex="1" parent="FqzfooGI2hUJGrlb4ZZL-27">
          <mxGeometry y="90" width="180" height="30" as="geometry" />
        </mxCell>
        <mxCell id="FqzfooGI2hUJGrlb4ZZL-35" value="" style="shape=partialRectangle;connectable=0;fillColor=none;top=0;left=0;bottom=0;right=0;editable=1;overflow=hidden;" vertex="1" parent="FqzfooGI2hUJGrlb4ZZL-34">
          <mxGeometry width="30" height="30" as="geometry" />
        </mxCell>
        <mxCell id="FqzfooGI2hUJGrlb4ZZL-36" value="Name" style="shape=partialRectangle;connectable=0;fillColor=none;top=0;left=0;bottom=0;right=0;align=left;spacingLeft=6;overflow=hidden;" vertex="1" parent="FqzfooGI2hUJGrlb4ZZL-34">
          <mxGeometry x="30" width="150" height="30" as="geometry" />
        </mxCell>
        <mxCell id="FqzfooGI2hUJGrlb4ZZL-37" value="" style="shape=partialRectangle;collapsible=0;dropTarget=0;pointerEvents=0;fillColor=none;top=0;left=0;bottom=0;right=0;points=[[0,0.5],[1,0.5]];portConstraint=eastwest;" vertex="1" parent="FqzfooGI2hUJGrlb4ZZL-27">
          <mxGeometry y="120" width="180" height="30" as="geometry" />
        </mxCell>
        <mxCell id="FqzfooGI2hUJGrlb4ZZL-38" value="" style="shape=partialRectangle;connectable=0;fillColor=none;top=0;left=0;bottom=0;right=0;editable=1;overflow=hidden;" vertex="1" parent="FqzfooGI2hUJGrlb4ZZL-37">
          <mxGeometry width="30" height="30" as="geometry" />
        </mxCell>
        <mxCell id="FqzfooGI2hUJGrlb4ZZL-39" value="Is_ref" style="shape=partialRectangle;connectable=0;fillColor=none;top=0;left=0;bottom=0;right=0;align=left;spacingLeft=6;overflow=hidden;" vertex="1" parent="FqzfooGI2hUJGrlb4ZZL-37">
          <mxGeometry x="30" width="150" height="30" as="geometry" />
        </mxCell>
        <mxCell id="FqzfooGI2hUJGrlb4ZZL-51" value="User" style="shape=table;startSize=30;container=1;collapsible=1;childLayout=tableLayout;fixedRows=1;rowLines=0;fontStyle=1;align=center;resizeLast=1;" vertex="1" parent="1">
          <mxGeometry x="640" y="800" width="180" height="160" as="geometry" />
        </mxCell>
        <mxCell id="FqzfooGI2hUJGrlb4ZZL-52" value="" style="shape=partialRectangle;collapsible=0;dropTarget=0;pointerEvents=0;fillColor=none;top=0;left=0;bottom=1;right=0;points=[[0,0.5],[1,0.5]];portConstraint=eastwest;" vertex="1" parent="FqzfooGI2hUJGrlb4ZZL-51">
          <mxGeometry y="30" width="180" height="30" as="geometry" />
        </mxCell>
        <mxCell id="FqzfooGI2hUJGrlb4ZZL-53" value="PK" style="shape=partialRectangle;connectable=0;fillColor=none;top=0;left=0;bottom=0;right=0;fontStyle=1;overflow=hidden;" vertex="1" parent="FqzfooGI2hUJGrlb4ZZL-52">
          <mxGeometry width="30" height="30" as="geometry" />
        </mxCell>
        <mxCell id="FqzfooGI2hUJGrlb4ZZL-54" value="UniqueID" style="shape=partialRectangle;connectable=0;fillColor=none;top=0;left=0;bottom=0;right=0;align=left;spacingLeft=6;fontStyle=5;overflow=hidden;" vertex="1" parent="FqzfooGI2hUJGrlb4ZZL-52">
          <mxGeometry x="30" width="150" height="30" as="geometry" />
        </mxCell>
        <mxCell id="FqzfooGI2hUJGrlb4ZZL-55" value="" style="shape=partialRectangle;collapsible=0;dropTarget=0;pointerEvents=0;fillColor=none;top=0;left=0;bottom=0;right=0;points=[[0,0.5],[1,0.5]];portConstraint=eastwest;" vertex="1" parent="FqzfooGI2hUJGrlb4ZZL-51">
          <mxGeometry y="60" width="180" height="30" as="geometry" />
        </mxCell>
        <mxCell id="FqzfooGI2hUJGrlb4ZZL-56" value="" style="shape=partialRectangle;connectable=0;fillColor=none;top=0;left=0;bottom=0;right=0;editable=1;overflow=hidden;" vertex="1" parent="FqzfooGI2hUJGrlb4ZZL-55">
          <mxGeometry width="30" height="30" as="geometry" />
        </mxCell>
        <mxCell id="FqzfooGI2hUJGrlb4ZZL-57" value="Name" style="shape=partialRectangle;connectable=0;fillColor=none;top=0;left=0;bottom=0;right=0;align=left;spacingLeft=6;overflow=hidden;" vertex="1" parent="FqzfooGI2hUJGrlb4ZZL-55">
          <mxGeometry x="30" width="150" height="30" as="geometry" />
        </mxCell>
        <mxCell id="FqzfooGI2hUJGrlb4ZZL-58" value="" style="shape=partialRectangle;collapsible=0;dropTarget=0;pointerEvents=0;fillColor=none;top=0;left=0;bottom=0;right=0;points=[[0,0.5],[1,0.5]];portConstraint=eastwest;" vertex="1" parent="FqzfooGI2hUJGrlb4ZZL-51">
          <mxGeometry y="90" width="180" height="30" as="geometry" />
        </mxCell>
        <mxCell id="FqzfooGI2hUJGrlb4ZZL-59" value="" style="shape=partialRectangle;connectable=0;fillColor=none;top=0;left=0;bottom=0;right=0;editable=1;overflow=hidden;" vertex="1" parent="FqzfooGI2hUJGrlb4ZZL-58">
          <mxGeometry width="30" height="30" as="geometry" />
        </mxCell>
        <mxCell id="FqzfooGI2hUJGrlb4ZZL-60" value="Hash" style="shape=partialRectangle;connectable=0;fillColor=none;top=0;left=0;bottom=0;right=0;align=left;spacingLeft=6;overflow=hidden;" vertex="1" parent="FqzfooGI2hUJGrlb4ZZL-58">
          <mxGeometry x="30" width="150" height="30" as="geometry" />
        </mxCell>
        <mxCell id="FqzfooGI2hUJGrlb4ZZL-61" value="" style="shape=partialRectangle;collapsible=0;dropTarget=0;pointerEvents=0;fillColor=none;top=0;left=0;bottom=0;right=0;points=[[0,0.5],[1,0.5]];portConstraint=eastwest;" vertex="1" parent="FqzfooGI2hUJGrlb4ZZL-51">
          <mxGeometry y="120" width="180" height="30" as="geometry" />
        </mxCell>
        <mxCell id="FqzfooGI2hUJGrlb4ZZL-62" value="" style="shape=partialRectangle;connectable=0;fillColor=none;top=0;left=0;bottom=0;right=0;editable=1;overflow=hidden;" vertex="1" parent="FqzfooGI2hUJGrlb4ZZL-61">
          <mxGeometry width="30" height="30" as="geometry" />
        </mxCell>
        <mxCell id="FqzfooGI2hUJGrlb4ZZL-63" value="" style="shape=partialRectangle;connectable=0;fillColor=none;top=0;left=0;bottom=0;right=0;align=left;spacingLeft=6;overflow=hidden;" vertex="1" parent="FqzfooGI2hUJGrlb4ZZL-61">
          <mxGeometry x="30" width="150" height="30" as="geometry" />
        </mxCell>
        <mxCell id="FqzfooGI2hUJGrlb4ZZL-64" value="calibration_session" style="shape=table;startSize=30;container=1;collapsible=1;childLayout=tableLayout;fixedRows=1;rowLines=0;fontStyle=1;align=center;resizeLast=1;" vertex="1" parent="1">
          <mxGeometry x="60" y="280" width="180" height="160" as="geometry" />
        </mxCell>
        <mxCell id="FqzfooGI2hUJGrlb4ZZL-65" value="" style="shape=partialRectangle;collapsible=0;dropTarget=0;pointerEvents=0;fillColor=none;top=0;left=0;bottom=1;right=0;points=[[0,0.5],[1,0.5]];portConstraint=eastwest;" vertex="1" parent="FqzfooGI2hUJGrlb4ZZL-64">
          <mxGeometry y="30" width="180" height="30" as="geometry" />
        </mxCell>
        <mxCell id="FqzfooGI2hUJGrlb4ZZL-66" value="PK" style="shape=partialRectangle;connectable=0;fillColor=none;top=0;left=0;bottom=0;right=0;fontStyle=1;overflow=hidden;" vertex="1" parent="FqzfooGI2hUJGrlb4ZZL-65">
          <mxGeometry width="30" height="30" as="geometry" />
        </mxCell>
        <mxCell id="FqzfooGI2hUJGrlb4ZZL-67" value="UniqueID" style="shape=partialRectangle;connectable=0;fillColor=none;top=0;left=0;bottom=0;right=0;align=left;spacingLeft=6;fontStyle=5;overflow=hidden;" vertex="1" parent="FqzfooGI2hUJGrlb4ZZL-65">
          <mxGeometry x="30" width="150" height="30" as="geometry" />
        </mxCell>
        <mxCell id="FqzfooGI2hUJGrlb4ZZL-68" value="" style="shape=partialRectangle;collapsible=0;dropTarget=0;pointerEvents=0;fillColor=none;top=0;left=0;bottom=0;right=0;points=[[0,0.5],[1,0.5]];portConstraint=eastwest;" vertex="1" parent="FqzfooGI2hUJGrlb4ZZL-64">
          <mxGeometry y="60" width="180" height="30" as="geometry" />
        </mxCell>
        <mxCell id="FqzfooGI2hUJGrlb4ZZL-69" value="" style="shape=partialRectangle;connectable=0;fillColor=none;top=0;left=0;bottom=0;right=0;editable=1;overflow=hidden;" vertex="1" parent="FqzfooGI2hUJGrlb4ZZL-68">
          <mxGeometry width="30" height="30" as="geometry" />
        </mxCell>
        <mxCell id="FqzfooGI2hUJGrlb4ZZL-70" value="In_progress" style="shape=partialRectangle;connectable=0;fillColor=none;top=0;left=0;bottom=0;right=0;align=left;spacingLeft=6;overflow=hidden;" vertex="1" parent="FqzfooGI2hUJGrlb4ZZL-68">
          <mxGeometry x="30" width="150" height="30" as="geometry" />
        </mxCell>
        <mxCell id="FqzfooGI2hUJGrlb4ZZL-71" value="" style="shape=partialRectangle;collapsible=0;dropTarget=0;pointerEvents=0;fillColor=none;top=0;left=0;bottom=0;right=0;points=[[0,0.5],[1,0.5]];portConstraint=eastwest;" vertex="1" parent="FqzfooGI2hUJGrlb4ZZL-64">
          <mxGeometry y="90" width="180" height="30" as="geometry" />
        </mxCell>
        <mxCell id="FqzfooGI2hUJGrlb4ZZL-72" value="" style="shape=partialRectangle;connectable=0;fillColor=none;top=0;left=0;bottom=0;right=0;editable=1;overflow=hidden;" vertex="1" parent="FqzfooGI2hUJGrlb4ZZL-71">
          <mxGeometry width="30" height="30" as="geometry" />
        </mxCell>
        <mxCell id="FqzfooGI2hUJGrlb4ZZL-73" value="Ref_tm" style="shape=partialRectangle;connectable=0;fillColor=none;top=0;left=0;bottom=0;right=0;align=left;spacingLeft=6;overflow=hidden;" vertex="1" parent="FqzfooGI2hUJGrlb4ZZL-71">
          <mxGeometry x="30" width="150" height="30" as="geometry" />
        </mxCell>
        <mxCell id="FqzfooGI2hUJGrlb4ZZL-74" value="" style="shape=partialRectangle;collapsible=0;dropTarget=0;pointerEvents=0;fillColor=none;top=0;left=0;bottom=0;right=0;points=[[0,0.5],[1,0.5]];portConstraint=eastwest;" vertex="1" parent="FqzfooGI2hUJGrlb4ZZL-64">
          <mxGeometry y="120" width="180" height="30" as="geometry" />
        </mxCell>
        <mxCell id="FqzfooGI2hUJGrlb4ZZL-75" value="" style="shape=partialRectangle;connectable=0;fillColor=none;top=0;left=0;bottom=0;right=0;editable=1;overflow=hidden;" vertex="1" parent="FqzfooGI2hUJGrlb4ZZL-74">
          <mxGeometry width="30" height="30" as="geometry" />
        </mxCell>
        <mxCell id="FqzfooGI2hUJGrlb4ZZL-76" value="Eval_tm" style="shape=partialRectangle;connectable=0;fillColor=none;top=0;left=0;bottom=0;right=0;align=left;spacingLeft=6;overflow=hidden;" vertex="1" parent="FqzfooGI2hUJGrlb4ZZL-74">
          <mxGeometry x="30" width="150" height="30" as="geometry" />
        </mxCell>
        <mxCell id="FqzfooGI2hUJGrlb4ZZL-81" value="User_prem" style="shape=table;startSize=30;container=1;collapsible=1;childLayout=tableLayout;fixedRows=1;rowLines=0;fontStyle=1;align=center;resizeLast=1;" vertex="1" parent="1">
          <mxGeometry x="370" y="800" width="180" height="130" as="geometry" />
        </mxCell>
        <mxCell id="FqzfooGI2hUJGrlb4ZZL-82" value="" style="shape=partialRectangle;collapsible=0;dropTarget=0;pointerEvents=0;fillColor=none;top=0;left=0;bottom=1;right=0;points=[[0,0.5],[1,0.5]];portConstraint=eastwest;" vertex="1" parent="FqzfooGI2hUJGrlb4ZZL-81">
          <mxGeometry y="30" width="180" height="30" as="geometry" />
        </mxCell>
        <mxCell id="FqzfooGI2hUJGrlb4ZZL-83" value="PK" style="shape=partialRectangle;connectable=0;fillColor=none;top=0;left=0;bottom=0;right=0;fontStyle=1;overflow=hidden;" vertex="1" parent="FqzfooGI2hUJGrlb4ZZL-82">
          <mxGeometry width="30" height="30" as="geometry" />
        </mxCell>
        <mxCell id="FqzfooGI2hUJGrlb4ZZL-84" value="UniqueID" style="shape=partialRectangle;connectable=0;fillColor=none;top=0;left=0;bottom=0;right=0;align=left;spacingLeft=6;fontStyle=5;overflow=hidden;" vertex="1" parent="FqzfooGI2hUJGrlb4ZZL-82">
          <mxGeometry x="30" width="150" height="30" as="geometry" />
        </mxCell>
        <mxCell id="FqzfooGI2hUJGrlb4ZZL-94" value="" style="shape=partialRectangle;collapsible=0;dropTarget=0;pointerEvents=0;fillColor=none;top=0;left=0;bottom=0;right=0;points=[[0,0.5],[1,0.5]];portConstraint=eastwest;" vertex="1" parent="FqzfooGI2hUJGrlb4ZZL-81">
          <mxGeometry y="60" width="180" height="30" as="geometry" />
        </mxCell>
        <mxCell id="FqzfooGI2hUJGrlb4ZZL-95" value="FK" style="shape=partialRectangle;connectable=0;fillColor=none;top=0;left=0;bottom=0;right=0;fontStyle=0;overflow=hidden;" vertex="1" parent="FqzfooGI2hUJGrlb4ZZL-94">
          <mxGeometry width="30" height="30" as="geometry" />
        </mxCell>
        <mxCell id="FqzfooGI2hUJGrlb4ZZL-96" value="UniqueID" style="shape=partialRectangle;connectable=0;fillColor=none;top=0;left=0;bottom=0;right=0;align=left;spacingLeft=6;fontStyle=0;overflow=hidden;" vertex="1" parent="FqzfooGI2hUJGrlb4ZZL-94">
          <mxGeometry x="30" width="150" height="30" as="geometry" />
        </mxCell>
        <mxCell id="FqzfooGI2hUJGrlb4ZZL-85" value="" style="shape=partialRectangle;collapsible=0;dropTarget=0;pointerEvents=0;fillColor=none;top=0;left=0;bottom=0;right=0;points=[[0,0.5],[1,0.5]];portConstraint=eastwest;" vertex="1" parent="FqzfooGI2hUJGrlb4ZZL-81">
          <mxGeometry y="90" width="180" height="30" as="geometry" />
        </mxCell>
        <mxCell id="FqzfooGI2hUJGrlb4ZZL-86" value="" style="shape=partialRectangle;connectable=0;fillColor=none;top=0;left=0;bottom=0;right=0;editable=1;overflow=hidden;" vertex="1" parent="FqzfooGI2hUJGrlb4ZZL-85">
          <mxGeometry width="30" height="30" as="geometry" />
        </mxCell>
        <mxCell id="FqzfooGI2hUJGrlb4ZZL-87" value="Prem" style="shape=partialRectangle;connectable=0;fillColor=none;top=0;left=0;bottom=0;right=0;align=left;spacingLeft=6;overflow=hidden;" vertex="1" parent="FqzfooGI2hUJGrlb4ZZL-85">
          <mxGeometry x="30" width="150" height="30" as="geometry" />
        </mxCell>
        <mxCell id="FqzfooGI2hUJGrlb4ZZL-99" value="" style="edgeStyle=entityRelationEdgeStyle;fontSize=12;html=1;endArrow=ERoneToMany;exitX=1;exitY=0.5;exitDx=0;exitDy=0;" edge="1" parent="1" source="FqzfooGI2hUJGrlb4ZZL-2" target="FqzfooGI2hUJGrlb4ZZL-40">
          <mxGeometry width="100" height="100" relative="1" as="geometry">
            <mxPoint x="560" y="500" as="sourcePoint" />
            <mxPoint x="660" y="400" as="targetPoint" />
          </mxGeometry>
        </mxCell>
        <mxCell id="FqzfooGI2hUJGrlb4ZZL-100" value="" style="edgeStyle=entityRelationEdgeStyle;fontSize=12;html=1;endArrow=ERoneToMany;entryX=0;entryY=0.5;entryDx=0;entryDy=0;exitX=1;exitY=0.5;exitDx=0;exitDy=0;" edge="1" parent="1" source="FqzfooGI2hUJGrlb4ZZL-65" target="FqzfooGI2hUJGrlb4ZZL-77">
          <mxGeometry width="100" height="100" relative="1" as="geometry">
            <mxPoint x="220" y="540" as="sourcePoint" />
            <mxPoint x="320" y="440" as="targetPoint" />
          </mxGeometry>
        </mxCell>
        <mxCell id="FqzfooGI2hUJGrlb4ZZL-101" value="" style="edgeStyle=entityRelationEdgeStyle;fontSize=12;html=1;endArrow=ERoneToMany;entryX=0;entryY=0.5;entryDx=0;entryDy=0;exitX=1;exitY=0.5;exitDx=0;exitDy=0;" edge="1" parent="1" source="FqzfooGI2hUJGrlb4ZZL-74" target="FqzfooGI2hUJGrlb4ZZL-28">
          <mxGeometry width="100" height="100" relative="1" as="geometry">
            <mxPoint x="180" y="690" as="sourcePoint" />
            <mxPoint x="280" y="590" as="targetPoint" />
          </mxGeometry>
        </mxCell>
        <mxCell id="FqzfooGI2hUJGrlb4ZZL-103" value="" style="edgeStyle=entityRelationEdgeStyle;fontSize=12;html=1;endArrow=ERone;endFill=1;entryX=0;entryY=0.5;entryDx=0;entryDy=0;exitX=1;exitY=0.5;exitDx=0;exitDy=0;" edge="1" parent="1" source="FqzfooGI2hUJGrlb4ZZL-71" target="FqzfooGI2hUJGrlb4ZZL-28">
          <mxGeometry width="100" height="100" relative="1" as="geometry">
            <mxPoint x="180" y="680" as="sourcePoint" />
            <mxPoint x="280" y="580" as="targetPoint" />
          </mxGeometry>
        </mxCell>
        <mxCell id="FqzfooGI2hUJGrlb4ZZL-104" value="" style="edgeStyle=entityRelationEdgeStyle;fontSize=12;html=1;endArrow=ERone;endFill=1;entryX=1;entryY=0.5;entryDx=0;entryDy=0;exitX=0;exitY=0.5;exitDx=0;exitDy=0;" edge="1" parent="1" source="FqzfooGI2hUJGrlb4ZZL-47" target="FqzfooGI2hUJGrlb4ZZL-28">
          <mxGeometry width="100" height="100" relative="1" as="geometry">
            <mxPoint x="640" y="710" as="sourcePoint" />
            <mxPoint x="740" y="610" as="targetPoint" />
          </mxGeometry>
        </mxCell>
        <mxCell id="FqzfooGI2hUJGrlb4ZZL-105" value="" style="edgeStyle=entityRelationEdgeStyle;fontSize=12;html=1;endArrow=ERzeroToMany;endFill=1;entryX=0;entryY=0.5;entryDx=0;entryDy=0;exitX=1;exitY=0.5;exitDx=0;exitDy=0;" edge="1" parent="1" source="FqzfooGI2hUJGrlb4ZZL-65" target="FqzfooGI2hUJGrlb4ZZL-82">
          <mxGeometry width="100" height="100" relative="1" as="geometry">
            <mxPoint x="230" y="-70" as="sourcePoint" />
            <mxPoint x="230" y="790" as="targetPoint" />
          </mxGeometry>
        </mxCell>
        <mxCell id="FqzfooGI2hUJGrlb4ZZL-111" value="" style="edgeStyle=entityRelationEdgeStyle;fontSize=12;html=1;endArrow=ERmandOne;exitX=0;exitY=0.5;exitDx=0;exitDy=0;" edge="1" parent="1" source="FqzfooGI2hUJGrlb4ZZL-52" target="FqzfooGI2hUJGrlb4ZZL-82">
          <mxGeometry width="100" height="100" relative="1" as="geometry">
            <mxPoint x="600" y="1090" as="sourcePoint" />
            <mxPoint x="700" y="990" as="targetPoint" />
          </mxGeometry>
        </mxCell>
      </root>
    </mxGraphModel>
  </diagram>
</mxfile>
